<?xml version="1.0" encoding="utf-8"?>
<!-- Generator: Adobe Illustrator 26.2.1, SVG Export Plug-In . SVG Version: 6.00 Build 0)  -->
<svg version="1.1" id="a" xmlns="http://www.w3.org/2000/svg" xmlns:xlink="http://www.w3.org/1999/xlink" x="0px" y="0px"
	 viewBox="0 0 490 490.4" style="enable-background:new 0 0 490 490.4;" xml:space="preserve">
<style type="text/css">
	.st0{fill:#FFA224;}
</style>
<path class="st0" d="M234.5,450.1c-25.9,25.9-60.4,40.2-97.1,40.2c-4.4,0-8.8-0.2-13.1-0.6c-8.8-0.8-17.5-2.5-25.9-5
	c-8.6-2.5-16.9-5.9-24.8-10.1c-12.2-6.4-23.4-14.7-33.2-24.5l-1.1-1.2c-6.1-6.2-11.7-13.1-16.5-20.4C7.8,406.1,0,380,0,353
	c0-36.7,14.3-71.2,40.2-97.1c25.9-25.9,60.4-40.2,97.1-40.2l78.1-0.1l-0.1-78.3c0-36.7,14.3-71.2,40.2-97.1
	c53.6-53.6,140.7-53.6,194.2,0c53.5,53.5,53.6,140.7,0,194.2c-26,26-60.4,40.2-97.1,40.2l-78.1,0.1l0.1,78.3
	C274.7,389.7,260.4,424.2,234.5,450.1L234.5,450.1z M82.7,408.9c5.5,5.3,11.6,9.8,18.3,13.3c4.5,2.4,9.2,4.3,14.1,5.7
	c4.8,1.4,9.8,2.4,14.8,2.9c2.5,0.2,5,0.4,7.5,0.4c20.9,0,40.5-8.1,55.3-22.9s22.9-34.4,22.9-55.3l-0.1-78.2l-78.1,0.1
	c-20.9,0-40.5,8.1-55.3,22.9c-14.8,14.8-22.9,34.4-22.9,55.3c0,15.4,4.5,30.2,12.9,43c2.8,4.2,6.1,8.2,9.8,12L82.7,408.9L82.7,408.9
	z M274.6,215.5l78.1-0.1c20.9,0,40.5-8.1,55.3-22.9c30.5-30.5,30.5-80.1,0-110.6s-80.1-30.5-110.6,0c-14.8,14.8-22.9,34.4-22.9,55.3
	L274.6,215.5L274.6,215.5z"/>
<g>
	<circle class="st0" cx="114.2" cy="353" r="13.4"/>
	<circle class="st0" cx="160.4" cy="353" r="13.4"/>
</g>
<g>
	<circle class="st0" cx="329.6" cy="137.3" r="13.4"/>
	<circle class="st0" cx="375.8" cy="137.3" r="13.4"/>
</g>
</svg>
